<svg version="1" xmlns="http://www.w3.org/2000/svg" width="800" height="800" viewBox="0 0 600.000000 600.000000"><path d="M57.4 2C27.5 9.8 5 35.5 1 66.1.2 72 0 142.8.2 305.5l.3 231 2.3 7.3c8.2 26.7 27.5 45.8 53.8 53.4l7.9 2.3h471l7.8-2.3c26.6-7.7 46.2-27.3 53.9-53.9l2.3-7.8v-471l-2.3-7.9c-6.3-21.9-21-39.4-40.8-48.7-17-8 7.4-7.3-256.4-7.6C72.4.1 64.3.2 57.4 2zm198.2 249c18.4 48.1 36.6 97.3 40.6 109.2l7.2 21.7 7.7-23.2c4.3-13 21.3-57.6 38.9-101.7 17.1-43.2 32.5-82 34.1-86.3l3-7.7H459v11.8l-8.7 3.2c-4.9 1.7-11.6 3.9-15 4.8l-6.3 1.7v232l8.3 1.9c4.5 1 11 2.9 14.5 4.3l6.2 2.5V437h-97v-11.9l9.8-3c5.3-1.7 12.2-3.8 15.3-4.6l5.7-1.6.6-104.2c.3-57.3.9-107 1.2-110.5.5-5.1.3-6.2-.9-6.2-.9 0-2 1.5-2.6 3.2-.5 1.8-3.5 11.4-6.5 21.3-3.8 12.4-18 48.9-45.5 117.5l-40 99.5-5.4.3-5.4.3-37.8-99.3c-20.8-54.6-39.7-105.4-42.1-112.8-2.3-7.4-5.6-18.1-7.3-23.8-2.1-6.8-3.7-10.2-4.6-10.2-1.3 0-1.5 14.6-1.5 112.4 0 106.3.1 112.5 1.8 113 .9.3 3.7 1 6.2 1.6 2.5.6 8.4 2.5 13.3 4.2l8.7 3V437h-83v-5.5c0-4.9.3-5.6 2.8-6.9 3.4-1.7 20.5-7.2 25.5-8.1l3.7-.7V184.2l-3.7-.7c-2.1-.3-9.3-2.5-16-4.7l-12.3-4V163l40.6.2 40.6.3 33.4 87.5z"/></svg>